<mxfile host="app.diagrams.net" modified="2024-04-04T20:31:57.696Z" agent="Mozilla/5.0 (Windows NT 10.0; Win64; x64) AppleWebKit/537.36 (KHTML, like Gecko) Chrome/123.0.0.0 Safari/537.36" etag="4aBYHrCLDoFDlfxZ8xP_" version="24.2.2" type="github">
  <diagram name="第 1 页" id="3LCLasnWs26GgvGPkRju">
    <mxGraphModel dx="1375" dy="529" grid="1" gridSize="10" guides="1" tooltips="1" connect="1" arrows="1" fold="1" page="1" pageScale="1" pageWidth="827" pageHeight="1169" math="0" shadow="0">
      <root>
        <mxCell id="0" />
        <mxCell id="1" parent="0" />
        <mxCell id="LR9AfBZaaWKI8YvBZTz1-1" value="基于web的大学校园资源共享系统" style="shape=folder;fontStyle=1;spacingTop=10;tabWidth=40;tabHeight=14;tabPosition=left;html=1;whiteSpace=wrap;" vertex="1" parent="1">
          <mxGeometry x="160" y="150" width="210" height="60" as="geometry" />
        </mxCell>
        <mxCell id="LR9AfBZaaWKI8YvBZTz1-2" value="在线选购发布子系统" style="shape=folder;fontStyle=1;spacingTop=10;tabWidth=40;tabHeight=14;tabPosition=left;html=1;whiteSpace=wrap;" vertex="1" parent="1">
          <mxGeometry x="110" y="320" width="110" height="60" as="geometry" />
        </mxCell>
        <mxCell id="LR9AfBZaaWKI8YvBZTz1-3" value="后台管理子系统" style="shape=folder;fontStyle=1;spacingTop=10;tabWidth=40;tabHeight=14;tabPosition=left;html=1;whiteSpace=wrap;" vertex="1" parent="1">
          <mxGeometry x="350" y="320" width="150" height="60" as="geometry" />
        </mxCell>
        <mxCell id="LR9AfBZaaWKI8YvBZTz1-5" value="用户信息管理" style="shape=folder;fontStyle=1;spacingTop=10;tabWidth=40;tabHeight=14;tabPosition=left;html=1;whiteSpace=wrap;" vertex="1" parent="1">
          <mxGeometry x="-30" y="480" width="70" height="50" as="geometry" />
        </mxCell>
        <mxCell id="LR9AfBZaaWKI8YvBZTz1-6" value="资源管理" style="shape=folder;fontStyle=1;spacingTop=10;tabWidth=40;tabHeight=14;tabPosition=left;html=1;whiteSpace=wrap;" vertex="1" parent="1">
          <mxGeometry x="110" y="490" width="70" height="50" as="geometry" />
        </mxCell>
        <mxCell id="LR9AfBZaaWKI8YvBZTz1-7" value="package" style="shape=folder;fontStyle=1;spacingTop=10;tabWidth=40;tabHeight=14;tabPosition=left;html=1;whiteSpace=wrap;" vertex="1" parent="1">
          <mxGeometry x="240" y="490" width="70" height="50" as="geometry" />
        </mxCell>
      </root>
    </mxGraphModel>
  </diagram>
</mxfile>
